<svg xmlns="http://www.w3.org/2000/svg" viewBox="0 0 128 128">
  <!-- Background rounded square -->
  <rect width="128" height="128" rx="24" fill="#1e1e2a"/>

  <!-- Stacked tab shapes (back to front) -->
  <!-- Tab 3 (backmost) -->
  <rect x="38" y="28" width="68" height="52" rx="6" fill="#4a4a62" stroke="#62628a" stroke-width="2"/>
  <rect x="50" y="22" width="28" height="10" rx="4 4 0 0" fill="#4a4a62" stroke="#62628a" stroke-width="2"/>
  <rect x="50" y="27" width="28" height="4" fill="#4a4a62"/>

  <!-- Tab 2 (middle) -->
  <rect x="28" y="38" width="68" height="52" rx="6" fill="#5570a0" stroke="#7090c0" stroke-width="2"/>
  <rect x="40" y="32" width="28" height="10" rx="4 4 0 0" fill="#5570a0" stroke="#7090c0" stroke-width="2"/>
  <rect x="40" y="37" width="28" height="4" fill="#5570a0"/>

  <!-- Tab 1 (front) -->
  <rect x="18" y="48" width="68" height="52" rx="6" fill="#5b9bd5" stroke="#8cc0f0" stroke-width="2"/>
  <rect x="30" y="42" width="28" height="10" rx="4 4 0 0" fill="#5b9bd5" stroke="#8cc0f0" stroke-width="2"/>
  <rect x="30" y="47" width="28" height="4" fill="#5b9bd5"/>

  <!-- Sparkle / cure symbol (bottom-right) -->
  <!-- Main star -->
  <g transform="translate(96, 92)">
    <path d="M0,-16 L3,-5 L14,-5 L5,2 L8,13 L0,7 L-8,13 L-5,2 L-14,-5 L-3,-5 Z" fill="#f5d050" stroke="#e8b830" stroke-width="1"/>
  </g>

  <!-- Small sparkle dots -->
  <circle cx="80" cy="72" r="2.5" fill="#f5d050" opacity="0.9"/>
  <circle cx="110" cy="82" r="1.8" fill="#f5d050" opacity="0.7"/>
  <circle cx="88" cy="106" r="2" fill="#f5d050" opacity="0.8"/>
</svg>
